<svg width="64" height="64" viewBox="0 0 64 64" fill="none" xmlns="http://www.w3.org/2000/svg">
<g clip-path="url(#clip0_334_130)">
<path d="M31.008 0.263355C31.3101 0.090774 31.6521 0 32 0C32.3479 0 32.6899 0.090774 32.992 0.263355L47.992 8.83536C48.2981 9.01021 48.5526 9.26287 48.7296 9.56773C48.9066 9.87259 48.9999 10.2188 49 10.5714V26.5514L62.992 34.5514C63.2969 34.7255 63.5506 34.9769 63.7276 35.2803C63.9045 35.5836 63.9985 35.9282 64 36.2794V53.4234C63.9999 53.7759 63.9066 54.1221 63.7296 54.427C63.5526 54.7318 63.2981 54.9845 62.992 55.1594L47.992 63.7314C47.6899 63.9039 47.3479 63.9947 47 63.9947C46.6521 63.9947 46.3101 63.9039 46.008 63.7314L32 55.7314L17.992 63.7354C17.6899 63.9079 17.3479 63.9987 17 63.9987C16.6521 63.9987 16.3101 63.9079 16.008 63.7354L1.008 55.1634C0.701892 54.9885 0.447439 54.7358 0.270422 54.431C0.093405 54.1261 0.000113708 53.7799 0 53.4274L0 36.2834C0.000113708 35.9308 0.093405 35.5846 0.270422 35.2797C0.447439 34.9749 0.701892 34.7222 1.008 34.5474L15 26.5514V10.5714C15.0001 10.2188 15.0934 9.87259 15.2704 9.56773C15.4474 9.26287 15.7019 9.01021 16.008 8.83536L31.008 0.263355ZM17 30.0154L6.032 36.2834L17 42.5514L27.968 36.2834L17 30.0154ZM30 39.7314L19 46.0154V58.5514L30 52.2674V39.7314ZM34 52.2674L45 58.5514V46.0154L34 39.7314V52.2674ZM36.032 36.2834L47 42.5514L57.968 36.2834L47 30.0154L36.032 36.2834ZM45 26.5514V14.0154L34 20.3034V32.8394L45 26.5514ZM30 32.8394V20.3034L19 14.0154V26.5514L30 32.8394ZM21.032 10.5714L32 16.8394L42.968 10.5714L32 4.30335L21.032 10.5714ZM60 39.7314L49 46.0154V58.5514L60 52.2674V39.7314ZM15 58.5514V46.0154L4 39.7314V52.2674L15 58.5514Z" fill="#075832"/>
</g>
<defs>
<clipPath id="clip0_334_130">
<rect width="64" height="64" fill="white"/>
</clipPath>
</defs>
</svg>
