<svg width="64" height="64" viewBox="0 0 64 64" fill="none" xmlns="http://www.w3.org/2000/svg">
<path d="M45.3334 21.3334H53.3334L61.3334 32.1494V48H55.9067C55.5857 50.2217 54.4749 52.2532 52.778 53.7225C51.081 55.1919 48.9114 56.0006 46.6667 56.0006C44.4221 56.0006 42.2525 55.1919 40.5555 53.7225C38.8586 52.2532 37.7478 50.2217 37.4268 48H23.9067C23.5897 50.2248 22.4807 52.2605 20.7832 53.7332C19.0858 55.2059 16.914 56.0167 14.6667 56.0167C12.4195 56.0167 10.2477 55.2059 8.55027 53.7332C6.85284 52.2605 5.74376 50.2248 5.42675 48H2.66675V16C2.66675 15.2928 2.9477 14.6145 3.4478 14.1144C3.94789 13.6143 4.62617 13.3334 5.33341 13.3334H42.6667C43.374 13.3334 44.0523 13.6143 44.5524 14.1144C45.0525 14.6145 45.3334 15.2928 45.3334 16V21.3334ZM45.3334 26.6667V34.6667H56.0001V33.9067L50.6454 26.6667H45.3334Z" fill="white"/>
</svg>
