<svg width="64" height="64" viewBox="0 0 64 64" fill="none" xmlns="http://www.w3.org/2000/svg">
<path d="M47.2267 43.44L56.8 33.8667C57.0472 33.62 57.2433 33.327 57.3772 33.0044C57.511 32.6818 57.5798 32.3359 57.5798 31.9867C57.5798 31.6374 57.511 31.2916 57.3772 30.969C57.2433 30.6464 57.0472 30.3534 56.8 30.1067L47.2267 20.5334C46.7281 20.0348 46.0518 19.7546 45.3467 19.7546C44.6415 19.7546 43.9653 20.0348 43.4667 20.5334C42.9681 21.032 42.6879 21.7082 42.6879 22.4134C42.6879 23.1185 42.9681 23.7948 43.4667 24.2934L48.4533 29.3334H26.6667C25.2 29.3334 24 30.5334 24 32C24 33.4667 25.2 34.6667 26.6667 34.6667H48.4533L43.44 39.68C43.1928 39.9267 42.9967 40.2198 42.8629 40.5424C42.729 40.865 42.6601 41.2108 42.6601 41.56C42.6601 41.9093 42.729 42.2551 42.8629 42.5777C42.9967 42.9003 43.1928 43.1933 43.44 43.44C44.48 44.48 46.1867 44.48 47.2267 43.44Z" fill="white"/>
<path d="M50.6667 50.6667H13.3333V13.3333H50.6667V16C50.6667 17.4667 51.8667 18.6667 53.3333 18.6667C54.8 18.6667 56 17.4667 56 16V13.3333C56 10.4 53.6 8 50.6667 8H13.3333C10.4 8 8 10.4 8 13.3333V50.6667C8 53.6 10.4 56 13.3333 56H50.6667C52.0812 56 53.4377 55.4381 54.4379 54.4379C55.4381 53.4377 56 52.0812 56 50.6667V48C56 46.5333 54.8 45.3333 53.3333 45.3333C51.8667 45.3333 50.6667 46.5333 50.6667 48V50.6667Z" fill="white"/>
</svg>
