<svg width="64" height="64" viewBox="0 0 64 64" fill="none" xmlns="http://www.w3.org/2000/svg">
<path fill-rule="evenodd" clip-rule="evenodd" d="M10 4.18005C9.46957 4.18005 8.96086 4.39077 8.58579 4.76584C8.21071 5.14091 8 5.64962 8 6.18005V49.8201C8 50.3505 8.21071 50.8592 8.58579 51.2343C8.96086 51.6093 9.46957 51.8201 10 51.8201H46C46.5304 51.8201 47.0391 51.6093 47.4142 51.2343C47.7893 50.8592 48 50.3505 48 49.8201V21.4561C48.0005 21.1875 47.947 20.9216 47.8425 20.6742C47.738 20.4268 47.5848 20.203 47.392 20.0161L31.644 4.75205C31.2715 4.38889 30.7722 4.18515 30.252 4.18405L10 4.18005ZM41.064 19.4561L32.252 10.9081V19.4561H41.064ZM24 22.0001H16V18.0001H24V22.0001ZM40 32.0001H16V28.0001H40V32.0001ZM16 42.0001H40V38.0001H16V42.0001Z" fill="white"/>
<path d="M52 30V56H18V60H54C54.5304 60 55.0391 59.7893 55.4142 59.4142C55.7893 59.0391 56 58.5304 56 58V30H52Z" fill="white"/>
</svg>
