<svg width="64" height="64" viewBox="0 0 64 64" fill="none" xmlns="http://www.w3.org/2000/svg">
<path d="M16.3733 39.9173L23.9147 47.4586C23.4227 47.968 22.8342 48.3743 22.1835 48.6538C21.5328 48.9334 20.833 49.0805 20.1248 49.0866C19.4167 49.0928 18.7144 48.9579 18.0589 48.6897C17.4035 48.4215 16.808 48.0255 16.3072 47.5247C15.8065 47.024 15.4104 46.4285 15.1423 45.7731C14.8741 45.1176 14.7392 44.4153 14.7453 43.7072C14.7515 42.999 14.8986 42.2992 15.1781 41.6485C15.4576 40.9978 15.8639 40.4093 16.3733 39.9173ZM40.0187 54.1173L38.136 56L8 25.864L9.88267 23.9813L12.8213 24.4C14.832 24.688 17.3253 24.0746 18.36 23.04L28.72 12.6826C31.7266 9.73255 35.7764 8.08877 39.9886 8.10876C44.2008 8.12875 48.2347 9.81091 51.2132 12.7894C54.1917 15.7679 55.8739 19.8019 55.8939 24.0141C55.9139 28.2262 54.2701 32.276 51.32 35.2826L40.96 45.6426C39.9253 46.6773 39.312 49.1706 39.6 51.1813L40.0187 54.1173Z" fill="#F1F0F0"/>
</svg>
