<svg width="64" height="64" viewBox="0 0 64 64" fill="none" xmlns="http://www.w3.org/2000/svg">
<path d="M34.3532 20.5347L24.7798 30.108C24.5326 30.3547 24.3365 30.6478 24.2027 30.9704C24.0689 31.293 24 31.6388 24 31.988C24 32.3373 24.0689 32.6831 24.2027 33.0057C24.3365 33.3283 24.5326 33.6213 24.7798 33.868L34.3532 43.4414C34.8518 43.94 35.528 44.2201 36.2332 44.2201C36.9383 44.2201 37.6146 43.94 38.1132 43.4414C38.6118 42.9428 38.8919 42.2665 38.8919 41.5614C38.8919 40.8562 38.6118 40.18 38.1132 39.6814L33.1265 34.6414H54.9132C56.3798 34.6414 57.5798 33.4414 57.5798 31.9747C57.5798 30.508 56.3798 29.308 54.9132 29.308L33.1265 29.308L38.1398 24.2947C38.387 24.048 38.5832 23.755 38.717 23.4324C38.8508 23.1098 38.9197 22.764 38.9197 22.4147C38.9197 22.0655 38.8508 21.7196 38.717 21.397C38.5832 21.0744 38.387 20.7814 38.1398 20.5347C37.0998 19.4947 35.3932 19.4947 34.3532 20.5347Z" fill="#075832"/>
<path d="M50.6667 50.6667H13.3333V13.3333H50.6667V16C50.6667 17.4667 51.8667 18.6667 53.3333 18.6667C54.8 18.6667 56 17.4667 56 16V13.3333C56 10.4 53.6 8 50.6667 8H13.3333C10.4 8 8 10.4 8 13.3333V50.6667C8 53.6 10.4 56 13.3333 56H50.6667C52.0812 56 53.4377 55.4381 54.4379 54.4379C55.4381 53.4377 56 52.0812 56 50.6667V48C56 46.5333 54.8 45.3333 53.3333 45.3333C51.8667 45.3333 50.6667 46.5333 50.6667 48V50.6667Z" fill="#075832"/>
</svg>
